<svg width="24" height="23" viewBox="0 0 24 23" fill="none" xmlns="http://www.w3.org/2000/svg">
<path d="M17.5 0.106201C16.3739 0.123716 15.2724 0.438055 14.3067 1.01747C13.341 1.59689 12.5453 2.42087 12 3.4062C11.4546 2.42087 10.6589 1.59689 9.6932 1.01747C8.7275 0.438055 7.62601 0.123716 6.49996 0.106201C4.7049 0.184192 3.01366 0.969455 1.79574 2.29043C0.577818 3.61141 -0.0677922 5.36073 -4.17093e-05 7.1562C-4.17093e-05 13.9312 10.956 21.7562 11.422 22.0882L12 22.4972L12.578 22.0882C13.044 21.7582 24 13.9312 24 7.1562C24.0677 5.36073 23.4221 3.61141 22.2042 2.29043C20.9863 0.969455 19.295 0.184192 17.5 0.106201ZM12 20.0352C8.74696 17.6052 1.99996 11.6352 1.99996 7.1562C1.9316 5.89092 2.36632 4.64993 3.20932 3.7039C4.05232 2.75787 5.23519 2.18355 6.49996 2.1062C7.76472 2.18355 8.9476 2.75787 9.7906 3.7039C10.6336 4.64993 11.0683 5.89092 11 7.1562H13C12.9316 5.89092 13.3663 4.64993 14.2093 3.7039C15.0523 2.75787 16.2352 2.18355 17.5 2.1062C18.7647 2.18355 19.9476 2.75787 20.7906 3.7039C21.6336 4.64993 22.0683 5.89092 22 7.1562C22 11.6372 15.253 17.6052 12 20.0352Z" fill="#253D4E"/>
</svg>
