<svg width="58" height="33" viewBox="0 0 58 33" fill="none" xmlns="http://www.w3.org/2000/svg">
<path d="M0 0.189209H42C50.8366 0.189209 58 7.35265 58 16.1892C58 25.0258 50.8366 32.1892 42 32.1892H0V0.189209Z" fill="#3BB77E"/>
<path d="M15.6 17.1392H18.564V18.0452H15.6V17.1392ZM20.8822 20.3732H22.7302V14.5112C22.7302 14.3352 22.7362 14.1572 22.7482 13.9772L21.2122 15.2912C21.1722 15.3232 21.1322 15.3472 21.0922 15.3632C21.0522 15.3752 21.0142 15.3812 20.9782 15.3812C20.9182 15.3812 20.8642 15.3692 20.8162 15.3452C20.7682 15.3172 20.7322 15.2852 20.7082 15.2492L20.3722 14.7872L22.9282 12.5732H23.7982V20.3732H25.4902V21.1892H20.8822V20.3732ZM32.6251 12.5912V13.0712C32.6251 13.2072 32.6091 13.3192 32.5771 13.4072C32.5491 13.4952 32.5191 13.5692 32.4871 13.6292L28.9291 20.8112C28.8771 20.9152 28.8051 21.0052 28.7131 21.0812C28.6211 21.1532 28.4971 21.1892 28.3411 21.1892H27.5791L31.1911 14.0972C31.2431 13.9972 31.2951 13.9052 31.3471 13.8212C31.4031 13.7372 31.4651 13.6572 31.5331 13.5812H27.0451C26.9771 13.5812 26.9151 13.5552 26.8591 13.5032C26.8071 13.4472 26.7811 13.3852 26.7811 13.3172V12.5912H32.6251ZM37.324 14.6672C37.324 15.0032 37.272 15.3052 37.168 15.5732C37.064 15.8372 36.924 16.0612 36.748 16.2452C36.576 16.4252 36.374 16.5632 36.142 16.6592C35.91 16.7552 35.668 16.8032 35.416 16.8032C35.144 16.8032 34.892 16.7552 34.66 16.6592C34.432 16.5632 34.232 16.4252 34.06 16.2452C33.888 16.0612 33.754 15.8372 33.658 15.5732C33.562 15.3052 33.514 15.0032 33.514 14.6672C33.514 14.3232 33.562 14.0172 33.658 13.7492C33.754 13.4812 33.888 13.2552 34.06 13.0712C34.232 12.8872 34.432 12.7472 34.66 12.6512C34.892 12.5552 35.144 12.5072 35.416 12.5072C35.684 12.5072 35.934 12.5552 36.166 12.6512C36.402 12.7472 36.604 12.8872 36.772 13.0712C36.944 13.2552 37.078 13.4812 37.174 13.7492C37.274 14.0172 37.324 14.3232 37.324 14.6672ZM36.49 14.6672C36.49 14.4032 36.462 14.1792 36.406 13.9952C36.35 13.8112 36.272 13.6612 36.172 13.5452C36.076 13.4252 35.962 13.3392 35.83 13.2872C35.702 13.2352 35.564 13.2092 35.416 13.2092C35.268 13.2092 35.128 13.2352 34.996 13.2872C34.868 13.3392 34.756 13.4252 34.66 13.5452C34.564 13.6612 34.488 13.8112 34.432 13.9952C34.38 14.1792 34.354 14.4032 34.354 14.6672C34.354 14.9272 34.38 15.1492 34.432 15.3332C34.488 15.5132 34.564 15.6612 34.66 15.7772C34.756 15.8892 34.868 15.9712 34.996 16.0232C35.128 16.0712 35.268 16.0952 35.416 16.0952C35.564 16.0952 35.702 16.0712 35.83 16.0232C35.962 15.9712 36.076 15.8892 36.172 15.7772C36.272 15.6612 36.35 15.5132 36.406 15.3332C36.462 15.1492 36.49 14.9272 36.49 14.6672ZM40.33 12.8072C40.382 12.7392 40.436 12.6872 40.492 12.6512C40.552 12.6112 40.63 12.5912 40.726 12.5912H41.494L35.212 21.0152C35.172 21.0672 35.124 21.1092 35.068 21.1412C35.012 21.1732 34.946 21.1892 34.87 21.1892H34.078L40.33 12.8072ZM42.076 19.1612C42.076 19.4972 42.024 19.7972 41.92 20.0612C41.816 20.3252 41.676 20.5492 41.5 20.7332C41.328 20.9132 41.126 21.0512 40.894 21.1472C40.666 21.2432 40.426 21.2912 40.174 21.2912C39.902 21.2912 39.65 21.2432 39.418 21.1472C39.19 21.0512 38.99 20.9132 38.818 20.7332C38.646 20.5492 38.512 20.3252 38.416 20.0612C38.32 19.7972 38.272 19.4972 38.272 19.1612C38.272 18.8172 38.32 18.5112 38.416 18.2432C38.512 17.9712 38.646 17.7432 38.818 17.5592C38.99 17.3752 39.19 17.2352 39.418 17.1392C39.65 17.0432 39.902 16.9952 40.174 16.9952C40.442 16.9952 40.692 17.0432 40.924 17.1392C41.156 17.2352 41.358 17.3752 41.53 17.5592C41.702 17.7432 41.836 17.9712 41.932 18.2432C42.028 18.5112 42.076 18.8172 42.076 19.1612ZM41.248 19.1612C41.248 18.8972 41.22 18.6732 41.164 18.4892C41.108 18.3012 41.03 18.1492 40.93 18.0332C40.834 17.9172 40.72 17.8332 40.588 17.7812C40.46 17.7292 40.322 17.7032 40.174 17.7032C40.026 17.7032 39.886 17.7292 39.754 17.7812C39.626 17.8332 39.514 17.9172 39.418 18.0332C39.322 18.1492 39.246 18.3012 39.19 18.4892C39.138 18.6732 39.112 18.8972 39.112 19.1612C39.112 19.4212 39.138 19.6412 39.19 19.8212C39.246 20.0012 39.322 20.1492 39.418 20.2652C39.514 20.3772 39.626 20.4592 39.754 20.5112C39.886 20.5592 40.026 20.5832 40.174 20.5832C40.322 20.5832 40.46 20.5592 40.588 20.5112C40.72 20.4592 40.834 20.3772 40.93 20.2652C41.03 20.1492 41.108 20.0012 41.164 19.8212C41.22 19.6412 41.248 19.4212 41.248 19.1612Z" fill="white"/>
</svg>
