<svg width="52" height="33" viewBox="0 0 52 33" fill="none" xmlns="http://www.w3.org/2000/svg">
<path d="M0 0.189209H36C44.8366 0.189209 52 7.35265 52 16.1892C52 25.0258 44.8366 32.1892 36 32.1892H0V0.189209Z" fill="#F7C851"/>
<path d="M20.496 13.9352C20.46 13.9952 20.42 14.0412 20.376 14.0732C20.336 14.1012 20.286 14.1152 20.226 14.1152C20.158 14.1152 20.078 14.0812 19.986 14.0132C19.894 13.9452 19.778 13.8712 19.638 13.7912C19.502 13.7072 19.336 13.6312 19.14 13.5632C18.948 13.4952 18.714 13.4612 18.438 13.4612C18.178 13.4612 17.948 13.4972 17.748 13.5692C17.552 13.6372 17.386 13.7312 17.25 13.8512C17.118 13.9712 17.018 14.1132 16.95 14.2772C16.882 14.4372 16.848 14.6112 16.848 14.7992C16.848 15.0392 16.906 15.2392 17.022 15.3992C17.142 15.5552 17.298 15.6892 17.49 15.8012C17.686 15.9132 17.906 16.0112 18.15 16.0952C18.398 16.1752 18.65 16.2592 18.906 16.3472C19.166 16.4352 19.418 16.5352 19.662 16.6472C19.91 16.7552 20.13 16.8932 20.322 17.0612C20.518 17.2292 20.674 17.4352 20.79 17.6792C20.91 17.9232 20.97 18.2232 20.97 18.5792C20.97 18.9552 20.906 19.3092 20.778 19.6412C20.65 19.9692 20.462 20.2552 20.214 20.4992C19.97 20.7432 19.668 20.9352 19.308 21.0752C18.952 21.2152 18.546 21.2852 18.09 21.2852C17.53 21.2852 17.022 21.1852 16.566 20.9852C16.11 20.7812 15.72 20.5072 15.396 20.1632L15.732 19.6112C15.764 19.5672 15.802 19.5312 15.846 19.5032C15.894 19.4712 15.946 19.4552 16.002 19.4552C16.054 19.4552 16.112 19.4772 16.176 19.5212C16.244 19.5612 16.32 19.6132 16.404 19.6772C16.488 19.7412 16.584 19.8112 16.692 19.8872C16.8 19.9632 16.922 20.0332 17.058 20.0972C17.198 20.1612 17.356 20.2152 17.532 20.2592C17.708 20.2992 17.906 20.3192 18.126 20.3192C18.402 20.3192 18.648 20.2812 18.864 20.2052C19.08 20.1292 19.262 20.0232 19.41 19.8872C19.562 19.7472 19.678 19.5812 19.758 19.3892C19.838 19.1972 19.878 18.9832 19.878 18.7472C19.878 18.4872 19.818 18.2752 19.698 18.1112C19.582 17.9432 19.428 17.8032 19.236 17.6912C19.044 17.5792 18.824 17.4852 18.576 17.4092C18.328 17.3292 18.076 17.2492 17.82 17.1692C17.564 17.0852 17.312 16.9892 17.064 16.8812C16.816 16.7732 16.596 16.6332 16.404 16.4612C16.212 16.2892 16.056 16.0752 15.936 15.8192C15.82 15.5592 15.762 15.2392 15.762 14.8592C15.762 14.5552 15.82 14.2612 15.936 13.9772C16.056 13.6932 16.228 13.4412 16.452 13.2212C16.68 13.0012 16.958 12.8252 17.286 12.6932C17.618 12.5612 17.998 12.4952 18.426 12.4952C18.906 12.4952 19.342 12.5712 19.734 12.7232C20.13 12.8752 20.478 13.0952 20.778 13.3832L20.496 13.9352ZM25.5736 18.4532C25.0816 18.4692 24.6616 18.5092 24.3136 18.5732C23.9696 18.6332 23.6876 18.7132 23.4676 18.8132C23.2516 18.9132 23.0936 19.0312 22.9936 19.1672C22.8976 19.3032 22.8496 19.4552 22.8496 19.6232C22.8496 19.7832 22.8756 19.9212 22.9276 20.0372C22.9796 20.1532 23.0496 20.2492 23.1376 20.3252C23.2296 20.3972 23.3356 20.4512 23.4556 20.4872C23.5796 20.5192 23.7116 20.5352 23.8516 20.5352C24.0396 20.5352 24.2116 20.5172 24.3676 20.4812C24.5236 20.4412 24.6696 20.3852 24.8056 20.3132C24.9456 20.2412 25.0776 20.1552 25.2016 20.0552C25.3296 19.9552 25.4536 19.8412 25.5736 19.7132V18.4532ZM22.1236 15.9692C22.4596 15.6452 22.8216 15.4032 23.2096 15.2432C23.5976 15.0832 24.0276 15.0032 24.4996 15.0032C24.8396 15.0032 25.1416 15.0592 25.4056 15.1712C25.6696 15.2832 25.8916 15.4392 26.0716 15.6392C26.2516 15.8392 26.3876 16.0812 26.4796 16.3652C26.5716 16.6492 26.6176 16.9612 26.6176 17.3012V21.1892H26.1436C26.0396 21.1892 25.9596 21.1732 25.9036 21.1412C25.8476 21.1052 25.8036 21.0372 25.7716 20.9372L25.6516 20.3612C25.4916 20.5092 25.3356 20.6412 25.1836 20.7572C25.0316 20.8692 24.8716 20.9652 24.7036 21.0452C24.5356 21.1212 24.3556 21.1792 24.1636 21.2192C23.9756 21.2632 23.7656 21.2852 23.5336 21.2852C23.2976 21.2852 23.0756 21.2532 22.8676 21.1892C22.6596 21.1212 22.4776 21.0212 22.3216 20.8892C22.1696 20.7572 22.0476 20.5912 21.9556 20.3912C21.8676 20.1872 21.8236 19.9472 21.8236 19.6712C21.8236 19.4312 21.8896 19.2012 22.0216 18.9812C22.1536 18.7572 22.3676 18.5592 22.6636 18.3872C22.9596 18.2152 23.3456 18.0752 23.8216 17.9672C24.2976 17.8552 24.8816 17.7912 25.5736 17.7752V17.3012C25.5736 16.8292 25.4716 16.4732 25.2676 16.2332C25.0636 15.9892 24.7656 15.8672 24.3736 15.8672C24.1096 15.8672 23.8876 15.9012 23.7076 15.9692C23.5316 16.0332 23.3776 16.1072 23.2456 16.1912C23.1176 16.2712 23.0056 16.3452 22.9096 16.4132C22.8176 16.4772 22.7256 16.5092 22.6336 16.5092C22.5616 16.5092 22.4996 16.4912 22.4476 16.4552C22.3956 16.4152 22.3516 16.3672 22.3156 16.3112L22.1236 15.9692ZM29.3484 12.3512V21.1892H28.2804V12.3512H29.3484ZM35.1484 17.4872C35.1484 17.2392 35.1124 17.0132 35.0404 16.8092C34.9724 16.6012 34.8704 16.4232 34.7344 16.2752C34.6024 16.1232 34.4404 16.0072 34.2484 15.9272C34.0564 15.8432 33.8384 15.8012 33.5944 15.8012C33.0824 15.8012 32.6764 15.9512 32.3764 16.2512C32.0804 16.5472 31.8964 16.9592 31.8244 17.4872H35.1484ZM36.0124 20.3372C35.8804 20.4972 35.7224 20.6372 35.5384 20.7572C35.3544 20.8732 35.1564 20.9692 34.9444 21.0452C34.7364 21.1212 34.5204 21.1772 34.2964 21.2132C34.0724 21.2532 33.8504 21.2732 33.6304 21.2732C33.2104 21.2732 32.8224 21.2032 32.4664 21.0632C32.1144 20.9192 31.8084 20.7112 31.5484 20.4392C31.2924 20.1632 31.0924 19.8232 30.9484 19.4192C30.8044 19.0152 30.7324 18.5512 30.7324 18.0272C30.7324 17.6032 30.7964 17.2072 30.9244 16.8392C31.0564 16.4712 31.2444 16.1532 31.4884 15.8852C31.7324 15.6132 32.0304 15.4012 32.3824 15.2492C32.7344 15.0932 33.1304 15.0152 33.5704 15.0152C33.9344 15.0152 34.2704 15.0772 34.5784 15.2012C34.8904 15.3212 35.1584 15.4972 35.3824 15.7292C35.6104 15.9572 35.7884 16.2412 35.9164 16.5812C36.0444 16.9172 36.1084 17.3012 36.1084 17.7332C36.1084 17.9012 36.0904 18.0132 36.0544 18.0692C36.0184 18.1252 35.9504 18.1532 35.8504 18.1532H31.7884C31.8004 18.5372 31.8524 18.8712 31.9444 19.1552C32.0404 19.4392 32.1724 19.6772 32.3404 19.8692C32.5084 20.0572 32.7084 20.1992 32.9404 20.2952C33.1724 20.3872 33.4324 20.4332 33.7204 20.4332C33.9884 20.4332 34.2184 20.4032 34.4104 20.3432C34.6064 20.2792 34.7744 20.2112 34.9144 20.1392C35.0544 20.0672 35.1704 20.0012 35.2624 19.9412C35.3584 19.8772 35.4404 19.8452 35.5084 19.8452C35.5964 19.8452 35.6644 19.8792 35.7124 19.9472L36.0124 20.3372Z" fill="white"/>
</svg>
