<svg width="50" height="33" viewBox="0 0 50 33" fill="none" xmlns="http://www.w3.org/2000/svg">
<path d="M0 0.189209H34C42.8366 0.189209 50 7.35265 50 16.1892C50 25.0258 42.8366 32.1892 34 32.1892H0V0.189209Z" fill="#FD6E6E"/>
<path d="M23.064 12.5912V21.1892H21.9V17.2772H17.262V21.1892H16.098V12.5912H17.262V16.4252H21.9V12.5912H23.064ZM27.3846 15.0152C27.8286 15.0152 28.2286 15.0892 28.5846 15.2372C28.9406 15.3852 29.2446 15.5952 29.4966 15.8672C29.7486 16.1392 29.9406 16.4692 30.0726 16.8572C30.2086 17.2412 30.2766 17.6712 30.2766 18.1472C30.2766 18.6272 30.2086 19.0592 30.0726 19.4432C29.9406 19.8272 29.7486 20.1552 29.4966 20.4272C29.2446 20.6992 28.9406 20.9092 28.5846 21.0572C28.2286 21.2012 27.8286 21.2732 27.3846 21.2732C26.9366 21.2732 26.5326 21.2012 26.1726 21.0572C25.8166 20.9092 25.5126 20.6992 25.2606 20.4272C25.0086 20.1552 24.8146 19.8272 24.6786 19.4432C24.5466 19.0592 24.4806 18.6272 24.4806 18.1472C24.4806 17.6712 24.5466 17.2412 24.6786 16.8572C24.8146 16.4692 25.0086 16.1392 25.2606 15.8672C25.5126 15.5952 25.8166 15.3852 26.1726 15.2372C26.5326 15.0892 26.9366 15.0152 27.3846 15.0152ZM27.3846 20.4392C27.9846 20.4392 28.4326 20.2392 28.7286 19.8392C29.0246 19.4352 29.1726 18.8732 29.1726 18.1532C29.1726 17.4292 29.0246 16.8652 28.7286 16.4612C28.4326 16.0572 27.9846 15.8552 27.3846 15.8552C27.0806 15.8552 26.8146 15.9072 26.5866 16.0112C26.3626 16.1152 26.1746 16.2652 26.0226 16.4612C25.8746 16.6572 25.7626 16.8992 25.6866 17.1872C25.6146 17.4712 25.5786 17.7932 25.5786 18.1532C25.5786 18.8732 25.7266 19.4352 26.0226 19.8392C26.3226 20.2392 26.7766 20.4392 27.3846 20.4392ZM33.3917 21.2852C32.9117 21.2852 32.5417 21.1512 32.2817 20.8832C32.0257 20.6152 31.8977 20.2292 31.8977 19.7252V16.0052H31.1657C31.1017 16.0052 31.0477 15.9872 31.0037 15.9512C30.9597 15.9112 30.9377 15.8512 30.9377 15.7712V15.3452L31.9337 15.2192L32.1797 13.3412C32.1917 13.2812 32.2177 13.2332 32.2577 13.1972C32.3017 13.1572 32.3577 13.1372 32.4257 13.1372H32.9657V15.2312H34.7237V16.0052H32.9657V19.6532C32.9657 19.9092 33.0277 20.0992 33.1517 20.2232C33.2757 20.3472 33.4357 20.4092 33.6317 20.4092C33.7437 20.4092 33.8397 20.3952 33.9197 20.3672C34.0037 20.3352 34.0757 20.3012 34.1357 20.2652C34.1957 20.2292 34.2457 20.1972 34.2857 20.1692C34.3297 20.1372 34.3677 20.1212 34.3997 20.1212C34.4557 20.1212 34.5057 20.1552 34.5497 20.2232L34.8617 20.7332C34.6777 20.9052 34.4557 21.0412 34.1957 21.1412C33.9357 21.2372 33.6677 21.2852 33.3917 21.2852Z" fill="white"/>
</svg>
