<svg width="82" height="32" viewBox="0 0 82 32" fill="none" xmlns="http://www.w3.org/2000/svg">
<path d="M0 0H66C74.8366 0 82 7.16344 82 16C82 24.8366 74.8366 32 66 32H0V0Z" fill="#FD6E6E"/>
<path d="M20.496 13.746C20.46 13.806 20.42 13.852 20.376 13.884C20.336 13.912 20.286 13.926 20.226 13.926C20.158 13.926 20.078 13.892 19.986 13.824C19.894 13.756 19.778 13.682 19.638 13.602C19.502 13.518 19.336 13.442 19.14 13.374C18.948 13.306 18.714 13.272 18.438 13.272C18.178 13.272 17.948 13.308 17.748 13.38C17.552 13.448 17.386 13.542 17.25 13.662C17.118 13.782 17.018 13.924 16.95 14.088C16.882 14.248 16.848 14.422 16.848 14.61C16.848 14.85 16.906 15.05 17.022 15.21C17.142 15.366 17.298 15.5 17.49 15.612C17.686 15.724 17.906 15.822 18.15 15.906C18.398 15.986 18.65 16.07 18.906 16.158C19.166 16.246 19.418 16.346 19.662 16.458C19.91 16.566 20.13 16.704 20.322 16.872C20.518 17.04 20.674 17.246 20.79 17.49C20.91 17.734 20.97 18.034 20.97 18.39C20.97 18.766 20.906 19.12 20.778 19.452C20.65 19.78 20.462 20.066 20.214 20.31C19.97 20.554 19.668 20.746 19.308 20.886C18.952 21.026 18.546 21.096 18.09 21.096C17.53 21.096 17.022 20.996 16.566 20.796C16.11 20.592 15.72 20.318 15.396 19.974L15.732 19.422C15.764 19.378 15.802 19.342 15.846 19.314C15.894 19.282 15.946 19.266 16.002 19.266C16.054 19.266 16.112 19.288 16.176 19.332C16.244 19.372 16.32 19.424 16.404 19.488C16.488 19.552 16.584 19.622 16.692 19.698C16.8 19.774 16.922 19.844 17.058 19.908C17.198 19.972 17.356 20.026 17.532 20.07C17.708 20.11 17.906 20.13 18.126 20.13C18.402 20.13 18.648 20.092 18.864 20.016C19.08 19.94 19.262 19.834 19.41 19.698C19.562 19.558 19.678 19.392 19.758 19.2C19.838 19.008 19.878 18.794 19.878 18.558C19.878 18.298 19.818 18.086 19.698 17.922C19.582 17.754 19.428 17.614 19.236 17.502C19.044 17.39 18.824 17.296 18.576 17.22C18.328 17.14 18.076 17.06 17.82 16.98C17.564 16.896 17.312 16.8 17.064 16.692C16.816 16.584 16.596 16.444 16.404 16.272C16.212 16.1 16.056 15.886 15.936 15.63C15.82 15.37 15.762 15.05 15.762 14.67C15.762 14.366 15.82 14.072 15.936 13.788C16.056 13.504 16.228 13.252 16.452 13.032C16.68 12.812 16.958 12.636 17.286 12.504C17.618 12.372 17.998 12.306 18.426 12.306C18.906 12.306 19.342 12.382 19.734 12.534C20.13 12.686 20.478 12.906 20.778 13.194L20.496 13.746ZM25.5736 18.264C25.0816 18.28 24.6616 18.32 24.3136 18.384C23.9696 18.444 23.6876 18.524 23.4676 18.624C23.2516 18.724 23.0936 18.842 22.9936 18.978C22.8976 19.114 22.8496 19.266 22.8496 19.434C22.8496 19.594 22.8756 19.732 22.9276 19.848C22.9796 19.964 23.0496 20.06 23.1376 20.136C23.2296 20.208 23.3356 20.262 23.4556 20.298C23.5796 20.33 23.7116 20.346 23.8516 20.346C24.0396 20.346 24.2116 20.328 24.3676 20.292C24.5236 20.252 24.6696 20.196 24.8056 20.124C24.9456 20.052 25.0776 19.966 25.2016 19.866C25.3296 19.766 25.4536 19.652 25.5736 19.524V18.264ZM22.1236 15.78C22.4596 15.456 22.8216 15.214 23.2096 15.054C23.5976 14.894 24.0276 14.814 24.4996 14.814C24.8396 14.814 25.1416 14.87 25.4056 14.982C25.6696 15.094 25.8916 15.25 26.0716 15.45C26.2516 15.65 26.3876 15.892 26.4796 16.176C26.5716 16.46 26.6176 16.772 26.6176 17.112V21H26.1436C26.0396 21 25.9596 20.984 25.9036 20.952C25.8476 20.916 25.8036 20.848 25.7716 20.748L25.6516 20.172C25.4916 20.32 25.3356 20.452 25.1836 20.568C25.0316 20.68 24.8716 20.776 24.7036 20.856C24.5356 20.932 24.3556 20.99 24.1636 21.03C23.9756 21.074 23.7656 21.096 23.5336 21.096C23.2976 21.096 23.0756 21.064 22.8676 21C22.6596 20.932 22.4776 20.832 22.3216 20.7C22.1696 20.568 22.0476 20.402 21.9556 20.202C21.8676 19.998 21.8236 19.758 21.8236 19.482C21.8236 19.242 21.8896 19.012 22.0216 18.792C22.1536 18.568 22.3676 18.37 22.6636 18.198C22.9596 18.026 23.3456 17.886 23.8216 17.778C24.2976 17.666 24.8816 17.602 25.5736 17.586V17.112C25.5736 16.64 25.4716 16.284 25.2676 16.044C25.0636 15.8 24.7656 15.678 24.3736 15.678C24.1096 15.678 23.8876 15.712 23.7076 15.78C23.5316 15.844 23.3776 15.918 23.2456 16.002C23.1176 16.082 23.0056 16.156 22.9096 16.224C22.8176 16.288 22.7256 16.32 22.6336 16.32C22.5616 16.32 22.4996 16.302 22.4476 16.266C22.3956 16.226 22.3516 16.178 22.3156 16.122L22.1236 15.78ZM33.3235 14.922L30.8455 21H29.8855L27.4075 14.922H28.2775C28.3655 14.922 28.4375 14.944 28.4935 14.988C28.5495 15.032 28.5875 15.084 28.6075 15.144L30.1495 19.056C30.1975 19.204 30.2395 19.348 30.2755 19.488C30.3115 19.628 30.3455 19.768 30.3775 19.908C30.4095 19.768 30.4435 19.628 30.4795 19.488C30.5155 19.348 30.5595 19.204 30.6115 19.056L32.1715 15.144C32.1955 15.08 32.2355 15.028 32.2915 14.988C32.3475 14.944 32.4135 14.922 32.4895 14.922H33.3235ZM38.207 17.298C38.207 17.05 38.171 16.824 38.099 16.62C38.031 16.412 37.929 16.234 37.793 16.086C37.661 15.934 37.499 15.818 37.307 15.738C37.115 15.654 36.897 15.612 36.653 15.612C36.141 15.612 35.735 15.762 35.435 16.062C35.139 16.358 34.955 16.77 34.883 17.298H38.207ZM39.071 20.148C38.939 20.308 38.781 20.448 38.597 20.568C38.413 20.684 38.215 20.78 38.003 20.856C37.795 20.932 37.579 20.988 37.355 21.024C37.131 21.064 36.909 21.084 36.689 21.084C36.269 21.084 35.881 21.014 35.525 20.874C35.173 20.73 34.867 20.522 34.607 20.25C34.351 19.974 34.151 19.634 34.007 19.23C33.863 18.826 33.791 18.362 33.791 17.838C33.791 17.414 33.855 17.018 33.983 16.65C34.115 16.282 34.303 15.964 34.547 15.696C34.791 15.424 35.089 15.212 35.441 15.06C35.793 14.904 36.189 14.826 36.629 14.826C36.993 14.826 37.329 14.888 37.637 15.012C37.949 15.132 38.217 15.308 38.441 15.54C38.669 15.768 38.847 16.052 38.975 16.392C39.103 16.728 39.167 17.112 39.167 17.544C39.167 17.712 39.149 17.824 39.113 17.88C39.077 17.936 39.009 17.964 38.909 17.964H34.847C34.859 18.348 34.911 18.682 35.003 18.966C35.099 19.25 35.231 19.488 35.399 19.68C35.567 19.868 35.767 20.01 35.999 20.106C36.231 20.198 36.491 20.244 36.779 20.244C37.047 20.244 37.277 20.214 37.469 20.154C37.665 20.09 37.833 20.022 37.973 19.95C38.113 19.878 38.229 19.812 38.321 19.752C38.417 19.688 38.499 19.656 38.567 19.656C38.655 19.656 38.723 19.69 38.771 19.758L39.071 20.148ZM48.6251 19.986C48.7411 19.986 48.8331 20.02 48.9011 20.088C48.9691 20.156 49.0031 20.244 49.0031 20.352V21H43.2671V20.634C43.2671 20.558 43.2831 20.48 43.3151 20.4C43.3471 20.32 43.3971 20.246 43.4651 20.178L46.2191 17.412C46.4471 17.18 46.6551 16.958 46.8431 16.746C47.0311 16.53 47.1911 16.314 47.3231 16.098C47.4551 15.882 47.5571 15.664 47.6291 15.444C47.7011 15.22 47.7371 14.982 47.7371 14.73C47.7371 14.478 47.6971 14.258 47.6171 14.07C47.5371 13.878 47.4271 13.72 47.2871 13.596C47.1511 13.472 46.9891 13.38 46.8011 13.32C46.6131 13.256 46.4111 13.224 46.1951 13.224C45.9751 13.224 45.7731 13.256 45.5891 13.32C45.4051 13.384 45.2411 13.474 45.0971 13.59C44.9571 13.702 44.8391 13.836 44.7431 13.992C44.6471 14.148 44.5791 14.32 44.5391 14.508C44.4911 14.648 44.4251 14.742 44.3411 14.79C44.2611 14.834 44.1471 14.846 43.9991 14.826L43.4411 14.73C43.4971 14.338 43.6051 13.992 43.7651 13.692C43.9291 13.388 44.1331 13.134 44.3771 12.93C44.6251 12.726 44.9071 12.572 45.2231 12.468C45.5391 12.36 45.8811 12.306 46.2491 12.306C46.6131 12.306 46.9531 12.36 47.2691 12.468C47.5851 12.576 47.8591 12.734 48.0911 12.942C48.3231 13.146 48.5051 13.396 48.6371 13.692C48.7691 13.988 48.8351 14.324 48.8351 14.7C48.8351 15.02 48.7871 15.318 48.6911 15.594C48.5951 15.866 48.4651 16.126 48.3011 16.374C48.1371 16.622 47.9471 16.864 47.7311 17.1C47.5191 17.336 47.2931 17.574 47.0531 17.814L44.7851 20.13C44.9451 20.086 45.1071 20.052 45.2711 20.028C45.4351 20 45.5931 19.986 45.7451 19.986H48.6251ZM51.8361 15.648C52.2841 15.552 52.6961 15.504 53.0721 15.504C53.5201 15.504 53.9161 15.57 54.2601 15.702C54.6041 15.834 54.8901 16.016 55.1181 16.248C55.3501 16.48 55.5241 16.754 55.6401 17.07C55.7601 17.386 55.8201 17.73 55.8201 18.102C55.8201 18.558 55.7401 18.97 55.5801 19.338C55.4241 19.706 55.2061 20.022 54.9261 20.286C54.6501 20.546 54.3241 20.746 53.9481 20.886C53.5721 21.026 53.1661 21.096 52.7301 21.096C52.4781 21.096 52.2361 21.07 52.0041 21.018C51.7721 20.97 51.5541 20.904 51.3501 20.82C51.1501 20.736 50.9641 20.64 50.7921 20.532C50.6201 20.424 50.4681 20.31 50.3361 20.19L50.6661 19.734C50.7381 19.63 50.8321 19.578 50.9481 19.578C51.0281 19.578 51.1181 19.61 51.2181 19.674C51.3181 19.734 51.4401 19.802 51.5841 19.878C51.7281 19.954 51.8961 20.024 52.0881 20.088C52.2841 20.148 52.5161 20.178 52.7841 20.178C53.0841 20.178 53.3541 20.13 53.5941 20.034C53.8341 19.938 54.0401 19.802 54.2121 19.626C54.3841 19.446 54.5161 19.232 54.6081 18.984C54.7001 18.736 54.7461 18.458 54.7461 18.15C54.7461 17.882 54.7061 17.64 54.6261 17.424C54.5501 17.208 54.4321 17.024 54.2721 16.872C54.1161 16.72 53.9201 16.602 53.6841 16.518C53.4481 16.434 53.1721 16.392 52.8561 16.392C52.6401 16.392 52.4141 16.41 52.1781 16.446C51.9461 16.482 51.7081 16.54 51.4641 16.62L50.7921 16.422L51.4821 12.402H55.5561V12.87C55.5561 13.022 55.5081 13.148 55.4121 13.248C55.3201 13.344 55.1601 13.392 54.9321 13.392H52.2321L51.8361 15.648ZM60.957 14.478C60.957 14.814 60.905 15.116 60.801 15.384C60.697 15.648 60.557 15.872 60.381 16.056C60.209 16.236 60.007 16.374 59.775 16.47C59.547 16.566 59.305 16.614 59.049 16.614C58.781 16.614 58.531 16.566 58.299 16.47C58.067 16.374 57.865 16.236 57.693 16.056C57.525 15.872 57.393 15.648 57.297 15.384C57.201 15.116 57.153 14.814 57.153 14.478C57.153 14.134 57.201 13.828 57.297 13.56C57.393 13.292 57.525 13.066 57.693 12.882C57.865 12.698 58.067 12.558 58.299 12.462C58.531 12.366 58.781 12.318 59.049 12.318C59.321 12.318 59.573 12.366 59.805 12.462C60.037 12.558 60.239 12.698 60.411 12.882C60.583 13.066 60.717 13.292 60.813 13.56C60.909 13.828 60.957 14.134 60.957 14.478ZM60.129 14.478C60.129 14.214 60.101 13.99 60.045 13.806C59.989 13.622 59.911 13.472 59.811 13.356C59.715 13.236 59.601 13.15 59.469 13.098C59.337 13.046 59.197 13.02 59.049 13.02C58.901 13.02 58.763 13.046 58.635 13.098C58.507 13.15 58.395 13.236 58.299 13.356C58.203 13.472 58.127 13.622 58.071 13.806C58.015 13.99 57.987 14.214 57.987 14.478C57.987 14.738 58.015 14.96 58.071 15.144C58.127 15.324 58.203 15.472 58.299 15.588C58.395 15.7 58.507 15.782 58.635 15.834C58.763 15.882 58.901 15.906 59.049 15.906C59.197 15.906 59.337 15.882 59.469 15.834C59.601 15.782 59.715 15.7 59.811 15.588C59.911 15.472 59.989 15.324 60.045 15.144C60.101 14.96 60.129 14.738 60.129 14.478ZM63.999 12.582C64.039 12.534 64.085 12.492 64.137 12.456C64.193 12.42 64.267 12.402 64.359 12.402H65.133L58.845 20.826C58.809 20.878 58.763 20.92 58.707 20.952C58.651 20.984 58.583 21 58.503 21H57.717L63.999 12.582ZM65.715 18.972C65.715 19.308 65.663 19.608 65.559 19.872C65.455 20.136 65.315 20.36 65.139 20.544C64.967 20.724 64.765 20.862 64.533 20.958C64.305 21.054 64.063 21.102 63.807 21.102C63.535 21.102 63.283 21.054 63.051 20.958C62.823 20.862 62.623 20.724 62.451 20.544C62.283 20.36 62.151 20.136 62.055 19.872C61.959 19.608 61.911 19.308 61.911 18.972C61.911 18.628 61.959 18.322 62.055 18.054C62.151 17.782 62.283 17.554 62.451 17.37C62.623 17.186 62.823 17.046 63.051 16.95C63.283 16.854 63.535 16.806 63.807 16.806C64.075 16.806 64.325 16.854 64.557 16.95C64.793 17.046 64.995 17.186 65.163 17.37C65.335 17.554 65.469 17.782 65.565 18.054C65.665 18.322 65.715 18.628 65.715 18.972ZM64.887 18.972C64.887 18.708 64.859 18.484 64.803 18.3C64.747 18.112 64.669 17.96 64.569 17.844C64.473 17.728 64.359 17.644 64.227 17.592C64.095 17.54 63.955 17.514 63.807 17.514C63.659 17.514 63.519 17.54 63.387 17.592C63.259 17.644 63.147 17.728 63.051 17.844C62.955 17.96 62.879 18.112 62.823 18.3C62.771 18.484 62.745 18.708 62.745 18.972C62.745 19.232 62.771 19.452 62.823 19.632C62.879 19.812 62.955 19.96 63.051 20.076C63.147 20.188 63.259 20.27 63.387 20.322C63.519 20.37 63.659 20.394 63.807 20.394C63.955 20.394 64.095 20.37 64.227 20.322C64.359 20.27 64.473 20.188 64.569 20.076C64.669 19.96 64.747 19.812 64.803 19.632C64.859 19.452 64.887 19.232 64.887 18.972Z" fill="white"/>
</svg>
