<svg width="12" height="13" viewBox="0 0 12 13" fill="none" xmlns="http://www.w3.org/2000/svg">
<g clip-path="url(#clip0_215_13763)">
<path d="M11.4485 4.77518C11.3733 4.54275 11.1672 4.37767 10.9233 4.35569L7.6103 4.05487L6.30026 0.98859C6.20367 0.763871 5.98368 0.618408 5.73925 0.618408C5.49483 0.618408 5.27484 0.763871 5.17825 0.989115L3.86821 4.05487L0.554701 4.35569C0.311242 4.3782 0.105615 4.54275 0.0300369 4.77518C-0.0455407 5.0076 0.0242569 5.26253 0.208428 5.42323L2.71265 7.61945L1.97421 10.8723C1.92018 11.1114 2.01301 11.3587 2.21145 11.5021C2.31812 11.5792 2.44292 11.6184 2.56876 11.6184C2.67727 11.6184 2.7849 11.5892 2.88149 11.5314L5.73925 9.82337L8.59597 11.5314C8.80501 11.6571 9.06852 11.6456 9.26653 11.5021C9.46506 11.3582 9.55781 11.1109 9.50377 10.8723L8.76534 7.61945L11.2696 5.42367C11.4537 5.26253 11.524 5.00804 11.4485 4.77518Z" fill="#FDC040"/>
</g>
<defs>
<clipPath id="clip0_215_13763">
<rect width="12" height="12" fill="white" transform="translate(0 0.189209)"/>
</clipPath>
</defs>
</svg>
