<svg width="24" height="25" viewBox="0 0 24 25" fill="none" xmlns="http://www.w3.org/2000/svg">
<path d="M1.44394 6.85821C1.1091 6.95388 0.805039 7.13533 0.561851 7.38459C0.318663 7.63386 0.144775 7.9423 0.0573935 8.2794C-0.0299883 8.6165 -0.0278354 8.97058 0.0636392 9.30659C0.155114 9.64261 0.33274 9.94892 0.578941 10.1952L3.99094 13.6032V20.1892H10.5839L14.0189 23.6192C14.2032 23.8053 14.4225 23.9531 14.6641 24.0541C14.9058 24.155 15.165 24.207 15.4269 24.2072C15.599 24.2069 15.7704 24.1847 15.9369 24.1412C16.2739 24.0563 16.5826 23.8842 16.8318 23.6421C17.0811 23.4 17.2622 23.0965 17.3569 22.7622L23.9909 0.210205L1.44394 6.85821ZM1.99994 8.78121L19.0279 3.76121L5.99294 16.7752V12.7752L1.99994 8.78121ZM15.4399 22.2052L11.4129 18.1892H7.41294L20.4459 5.16721L15.4399 22.2052Z" fill="#253D4E"/>
</svg>
